<svg 
 xmlns="http://www.w3.org/2000/svg"
 xmlns:xlink="http://www.w3.org/1999/xlink"
 width="14px" height="18px">
<path fill-rule="evenodd"  fill="rgb(56, 55, 55)"
 d="M12.741,6.905 C12.740,6.905 12.739,6.905 12.739,6.905 C12.714,6.903 12.690,6.900 12.667,6.896 C12.665,6.896 12.665,6.896 12.665,6.896 C12.353,6.845 12.117,6.604 12.117,6.316 L12.117,4.526 C12.117,2.030 9.823,0.007 6.992,0.007 C4.161,0.007 1.867,2.030 1.867,4.526 L1.867,6.316 C1.867,6.604 1.632,6.845 1.320,6.896 C1.320,6.896 1.320,6.896 1.318,6.896 C1.295,6.900 1.271,6.903 1.246,6.905 C1.246,6.905 1.245,6.905 1.244,6.905 C0.537,7.001 -0.003,7.540 -0.003,8.189 L-0.003,16.690 C-0.003,17.408 0.656,17.990 1.471,17.990 L12.514,17.990 C13.328,17.990 13.988,17.408 13.988,16.690 L13.988,8.189 C13.988,7.540 13.447,7.001 12.741,6.905 ZM4.337,4.526 C4.337,3.233 5.526,2.186 6.992,2.186 C8.459,2.186 9.647,3.233 9.647,4.526 L9.647,6.299 C9.647,6.625 9.346,6.889 8.976,6.889 L6.992,6.889 L5.008,6.889 C4.638,6.889 4.337,6.625 4.337,6.299 L4.337,4.526 Z"/>
</svg>