<svg 
 xmlns="http://www.w3.org/2000/svg"
 xmlns:xlink="http://www.w3.org/1999/xlink"
 width="10px" height="6px">
<path fill-rule="evenodd"  fill="rgb(255, 255, 255)"
 d="M9.697,1.604 L5.930,5.418 C5.884,5.528 5.820,5.632 5.731,5.722 C5.536,5.920 5.277,6.005 5.021,5.993 C4.753,6.014 4.480,5.933 4.276,5.731 C4.176,5.631 4.107,5.514 4.061,5.390 L0.269,1.626 C-0.100,1.252 -0.100,0.646 0.269,0.273 C0.638,-0.101 1.236,-0.101 1.605,0.273 L5.009,3.652 L8.350,0.268 C8.722,-0.101 9.325,-0.101 9.697,0.268 C10.068,0.637 10.068,1.235 9.697,1.604 Z"/>
</svg>